<?xml version="1.0" standalone="no"?>
<!DOCTYPE svg PUBLIC "-//W3C//DTD SVG 20010904//EN"
 "http://www.w3.org/TR/2001/REC-SVG-20010904/DTD/svg10.dtd">
<svg version="1.0" xmlns="http://www.w3.org/2000/svg"
 width="300.000000pt" height="119.000000pt" viewBox="0 0 300.000000 119.000000"
 preserveAspectRatio="xMidYMid meet">
<metadata>
Created by potrace 1.10, written by Peter Selinger 2001-2011
</metadata>
<g transform="translate(0.000000,119.000000) scale(0.100000,-0.100000)"
fill="#000000" stroke="none">
<path d="M189 920 c-69 -20 -99 -61 -99 -134 0 -50 19 -79 104 -157 56 -51 86
-98 86 -134 0 -28 -55 -75 -87 -75 -49 1 -83 43 -63 81 13 23 58 26 67 3 7
-19 -11 -41 -21 -25 -10 16 -26 13 -26 -4 0 -23 35 -37 64 -25 21 8 26 16 26
44 0 43 -29 66 -81 66 -93 0 -103 -127 -13 -165 77 -32 168 -13 217 44 22 26
27 43 27 84 0 72 -24 107 -110 157 -83 50 -110 81 -110 125 0 48 39 80 100 80
57 0 90 -24 90 -67 0 -51 -65 -89 -98 -56 -27 27 -2 81 29 62 14 -9 10 -24 -7
-24 -8 0 -12 -4 -9 -10 11 -18 44 -11 56 12 10 19 8 24 -12 41 -36 29 -119 2
-119 -39 0 -84 131 -125 187 -59 31 35 31 102 2 134 -42 45 -129 63 -200 41z
m-43 -121 c3 -19 6 -42 7 -51 1 -10 5 -18 10 -18 7 0 56 -33 94 -65 7 -5 26
-21 43 -35 69 -55 76 -134 18 -182 -32 -26 -52 -22 -28 7 19 22 9 96 -17 132
-13 17 -47 56 -76 86 -70 73 -75 80 -72 108 1 13 3 33 4 43 2 28 10 15 17 -25z"/>
<path d="M552 917 c-52 -16 -92 -69 -91 -120 1 -61 5 -68 102 -166 76 -77 87
-93 87 -123 0 -68 -74 -110 -128 -72 -38 27 -24 89 19 82 17 -2 25 -10 27 -28
3 -20 1 -23 -9 -12 -18 16 -39 15 -39 -3 0 -23 39 -39 66 -26 30 13 33 69 6
94 -21 19 -73 22 -102 7 -25 -13 -38 -59 -28 -97 6 -23 19 -37 51 -52 92 -45
204 -14 239 67 38 86 4 154 -109 219 -78 45 -108 86 -98 134 20 92 185 87 185
-6 0 -37 -26 -65 -61 -65 -31 0 -49 17 -49 46 0 25 28 40 44 23 8 -8 8 -13 -1
-16 -7 -3 -13 -9 -13 -15 0 -16 42 -4 54 15 16 27 -27 61 -68 53 -42 -9 -56
-24 -56 -60 0 -44 37 -77 92 -83 37 -4 49 -1 76 22 63 53 48 140 -31 176 -46
20 -113 23 -165 6z m-32 -123 c0 -37 31 -74 110 -132 70 -51 104 -87 97 -105
-3 -8 -1 -20 3 -27 11 -18 -28 -88 -53 -96 -27 -9 -30 0 -10 33 28 50 6 100
-87 196 -80 82 -103 123 -78 138 8 6 9 9 1 9 -6 0 -9 9 -6 21 8 29 23 4 23
-37z"/>
<path d="M1075 915 c-47 -17 -81 -55 -90 -102 -9 -51 24 -110 101 -178 97 -86
115 -149 57 -195 -35 -27 -74 -25 -103 5 -20 22 -22 28 -12 51 16 33 65 31 70
-3 2 -13 -1 -23 -7 -23 -6 0 -11 5 -11 10 0 6 -7 10 -15 10 -22 0 -18 -28 6
-40 28 -16 69 11 69 45 0 64 -98 91 -139 39 -25 -32 -26 -55 -5 -95 40 -77
197 -79 263 -3 26 29 31 43 31 86 0 71 -27 109 -111 159 -82 49 -109 80 -109
124 0 49 39 80 102 80 40 0 53 -4 69 -24 25 -30 24 -62 -1 -89 -30 -32 -85
-27 -90 8 -4 27 0 38 16 44 23 9 37 -3 23 -20 -15 -18 -6 -28 19 -20 56 18 17
83 -42 72 -33 -7 -66 -33 -66 -52 0 -49 55 -94 115 -94 85 0 130 113 68 172
-52 49 -128 61 -208 33z m12 -193 c15 -13 40 -35 55 -48 15 -13 31 -24 35 -24
4 0 24 -19 46 -42 35 -39 38 -47 34 -86 -5 -44 -38 -92 -63 -92 -10 0 -11 6
-4 26 27 69 9 112 -93 216 -66 69 -85 108 -71 150 6 19 9 15 19 -27 9 -32 23
-58 42 -73z"/>
<path d="M1450 777 l-44 -12 3 -52 2 -53 -35 0 c-38 0 -42 -5 -26 -30 6 -9 21
-14 41 -12 23 3 30 0 27 -10 -3 -7 -14 -12 -24 -11 -10 1 -22 -4 -26 -10 -15
-24 -8 -37 22 -37 l30 0 0 -90 c0 -79 2 -90 18 -90 30 0 39 14 46 70 13 107
15 111 43 104 16 -4 28 -2 34 7 17 28 9 39 -27 39 -28 0 -35 3 -32 18 2 11 15
19 37 22 48 7 53 30 6 30 -30 0 -35 3 -31 18 3 9 8 38 12 65 7 54 5 55 -76 34z
m34 -56 c9 -14 -4 -41 -19 -41 -15 0 -28 27 -19 41 3 5 11 9 19 9 8 0 16 -4
19 -9z m-6 -88 c-5 -26 -38 -29 -38 -4 0 15 6 21 21 21 14 0 19 -5 17 -17z
m-4 -49 c9 -8 16 -19 16 -23 0 -12 -23 -31 -39 -31 -8 0 -11 3 -8 7 4 3 0 14
-9 24 -29 33 9 55 40 23z"/>
<path d="M2203 706 c3 -8 -1 -20 -10 -27 -12 -11 -17 -10 -25 4 -13 24 -31 10
-24 -19 5 -17 2 -26 -9 -30 -9 -4 -23 -23 -32 -43 l-17 -36 -4 28 c-4 34 4 61
17 53 10 -6 27 52 18 61 -3 2 -18 -1 -33 -9 -26 -12 -29 -20 -45 -123 -10 -60
-20 -124 -24 -141 -5 -30 -4 -32 32 -39 21 -3 49 -9 62 -12 l24 -6 -8 95 -7
95 32 37 c20 22 41 36 56 36 21 0 23 -4 18 -29 -7 -31 11 -50 29 -32 7 7 14 7
24 -1 10 -8 17 -8 26 1 9 10 8 14 -5 22 -19 11 -13 49 9 49 9 0 13 7 11 18 -2
9 -10 16 -18 14 -26 -6 -58 8 -63 28 -3 11 -13 20 -22 20 -11 0 -15 -5 -12
-14z m-108 -187 c0 -7 -8 -15 -17 -17 -18 -3 -25 18 -11 32 10 10 28 1 28 -15z
m-5 -80 c0 -12 -7 -19 -20 -19 -22 0 -29 35 -7 43 18 6 27 -2 27 -24z"/>
<path d="M2500 696 c0 -35 -17 -41 -32 -11 -12 23 -16 24 -33 11 -17 -12 -17
-16 -6 -30 20 -24 -1 -46 -28 -29 -15 10 -22 9 -32 -3 -10 -12 -9 -17 5 -27
14 -10 15 -18 7 -40 -6 -15 -17 -27 -26 -27 -8 0 -15 -7 -15 -15 0 -8 9 -15
19 -15 28 0 39 -40 15 -57 -13 -10 -15 -16 -6 -25 8 -8 15 -8 24 0 19 15 59
-20 56 -49 -4 -30 27 -38 35 -10 6 25 47 17 54 -11 7 -24 43 -24 43 1 0 24 39
35 60 16 22 -20 49 -3 31 19 -11 13 -11 19 -1 31 10 11 10 19 2 27 -7 7 -19 4
-40 -11 -42 -30 -95 -28 -116 4 -24 36 -32 84 -15 89 8 3 40 7 72 11 47 5 57
10 57 26 0 11 7 19 16 19 9 0 14 7 12 18 -3 12 -12 16 -30 14 -29 -3 -48 25
-23 34 19 8 19 23 0 31 -9 3 -21 -2 -28 -11 -15 -20 -51 -11 -43 10 3 8 -4 18
-14 24 -17 9 -20 7 -20 -14z m31 -56 c31 -17 22 -30 -13 -19 -18 5 -34 9 -34
9 -1 0 -4 -6 -7 -14 -4 -10 4 -13 31 -12 49 1 52 -28 5 -32 -18 -2 -33 -6 -34
-10 0 -4 -3 -16 -5 -27 -9 -41 -11 -84 -3 -80 9 6 24 -34 16 -42 -3 -2 -19 8
-36 25 -17 16 -28 32 -24 35 3 4 1 7 -6 7 -7 0 -10 4 -6 9 3 5 0 13 -6 17 -16
9 -4 58 26 102 14 20 25 33 25 30 0 -4 10 -3 23 2 29 11 26 11 48 0z m54 -50
c-10 -16 -35 7 -28 27 5 13 7 13 21 0 8 -8 11 -20 7 -27z"/>
<path d="M1691 691 c-12 -8 -13 -12 -1 -26 11 -13 9 -19 -10 -40 -15 -16 -30
-23 -41 -20 -25 8 -36 -15 -14 -31 26 -19 28 -75 4 -81 -10 -3 -19 -12 -19
-20 0 -11 7 -13 24 -9 31 8 65 -36 46 -59 -7 -8 -9 -19 -5 -25 9 -15 32 -12
39 5 4 12 10 14 25 5 11 -5 30 -10 42 -10 12 0 27 -7 33 -16 14 -18 47 -9 39
12 -6 17 55 77 72 70 13 -5 35 12 35 26 0 4 -7 8 -15 8 -11 0 -15 11 -15 36 0
27 5 37 20 41 21 6 24 12 14 37 -5 13 -9 14 -21 4 -12 -9 -19 -6 -39 18 -15
18 -22 37 -19 50 6 25 -24 42 -36 22 -12 -19 -116 -20 -123 -2 -6 16 -15 17
-35 5z m108 -71 c63 -33 43 -190 -24 -190 -61 0 -88 139 -35 182 25 21 34 22
59 8z m104 -101 c-3 -31 -11 -49 -25 -58 -25 -16 -33 -9 -18 18 11 21 9 71 -5
121 -7 25 -7 25 22 -5 26 -26 29 -35 26 -76z"/>
</g>
</svg>
